<svg width="131" height="77" viewBox="0 0 131 77" fill="none" xmlns="http://www.w3.org/2000/svg">
<path d="M81.416 3.30176C89.1356 -1.15505 99.0079 1.49042 103.465 9.20996C105.684 13.0542 106.139 17.4313 105.086 21.4082C103.204 25.8987 103.367 31.1856 105.989 35.7275C108.461 40.0092 112.599 42.7295 117.111 43.543C117.109 43.5516 117.107 43.5607 117.104 43.5693C121.377 44.5104 125.254 47.1747 127.614 51.2617C132.071 58.9813 129.426 68.8525 121.707 73.3096C113.987 77.7664 104.116 75.1218 99.6592 67.4023C97.3955 63.4811 96.9644 59.0047 98.0996 54.9648C99.8924 50.5186 99.6951 45.3223 97.1123 40.8486C94.6382 36.5634 90.4952 33.8432 85.9785 33.0322C81.7224 32.0832 77.8611 29.4247 75.5088 25.3506C71.0521 17.631 73.6966 7.75878 81.416 3.30176ZM33.623 3.2998C41.3427 -1.15708 51.2139 1.48847 55.6709 9.20801C57.89 13.0518 58.3452 17.4279 57.293 21.4043C55.4107 25.8952 55.5738 31.1832 58.1963 35.7256C60.6684 40.007 64.8062 42.7266 69.3184 43.54C69.3157 43.5486 69.3142 43.5578 69.3115 43.5664C73.5843 44.5074 77.4633 47.1722 79.8232 51.2598C84.2798 58.9794 81.6336 68.8507 73.9141 73.3076C66.1945 77.7641 56.324 75.1189 51.8672 67.3994C49.6005 63.4729 49.1705 58.9894 50.3115 54.9453C52.097 50.5029 51.8977 45.3146 49.3184 40.8467C46.845 36.5627 42.7035 33.8422 38.1885 33.0303C33.9308 32.0819 30.0678 29.423 27.7148 25.3477C23.2583 17.6281 25.9037 7.75676 33.623 3.2998ZM9.74609 45.2891C17.4657 40.8321 27.337 43.4767 31.7939 51.1963C36.2508 58.9159 33.6061 68.787 25.8867 73.2441C18.1671 77.7011 8.29589 75.0564 3.83887 67.3369C-0.618027 59.6173 2.02661 49.7461 9.74609 45.2891Z" fill="white"/>
</svg>
